# xmcd
#
# Track frame offsets:
#	150
#	11460
#	28360
#	42378
#	60311
#	88343
#	106512
#	121916
#	137092
#	153151
#	165899
#	181311
#	195217
#
# Disc length: 2840 seconds
#
# Revision: 0
# Processed by: cddbd v1.5.1PL0 Copyright (c) Steve Scherf et al.
# Submitted via: EasyCDDAExtractor 4.6.0.1
#
DISCID=950b160d
DTITLE=Los Nietos - Originalidad
DYEAR=2004
DGENRE=Regional
TTITLE0=Que soledad
TTITLE1=Te quiero mas
TTITLE2=No puede ser
TTITLE3=Te amo
TTITLE4=Popurri Nietoss
TTITLE5=Me vale
TTITLE6=Aun te extra~a
TTITLE7=Se apago mi estrella
TTITLE8=Palabras
TTITLE9=La chica del bikini azul
TTITLE10=No te quiero perder
TTITLE11=No se que hacer
TTITLE12=Ya se que es mentira
EXTD=
EXTT0=
EXTT1=
EXTT2=
EXTT3=
EXTT4=
EXTT5=
EXTT6=
EXTT7=
EXTT8=
EXTT9=
EXTT10=
EXTT11=
EXTT12=
PLAYORDER=
